<?xml version="1.0" encoding="UTF-8" standalone="no"?>
<svg width="18px" height="23px" viewBox="0 0 18 23" version="1.1" xmlns="http://www.w3.org/2000/svg" xmlns:xlink="http://www.w3.org/1999/xlink" xmlns:sketch="http://www.bohemiancoding.com/sketch/ns">
    <!-- Generator: Sketch 3.3.1 (12005) - http://www.bohemiancoding.com/sketch -->
    <title>Shape Copy</title>
    <desc>Created with Sketch.</desc>
    <defs></defs>
    <g id="Page-1" stroke="none" stroke-width="1" fill="none" fill-rule="evenodd" sketch:type="MSPage">
        <g id="Not-SIgned-In-SPEC-2" sketch:type="MSArtboardGroup" transform="translate(-3803.000000, -1371.000000)" fill="#FFFFFF">
            <g id="desktop-signed-in-copy" sketch:type="MSLayerGroup" transform="translate(3724.000000, 1351.250000)">
                <g id="Group" sketch:type="MSShapeGroup">
                    <path d="M95.2097916,29.1327637 L94.7811213,29.1327637 L94.7811213,27.1264563 C94.7811213,23.4156375 91.8363405,20.3157778 88.1557147,20.249606 C88.0551463,20.247798 87.8541901,20.247798 87.7536668,20.249606 C84.0729507,20.3157778 81.1282151,23.4156375 81.1282151,27.1264563 L81.1282151,29.1327637 L80.6994995,29.1327637 C80.0388663,29.1327637 79.5,29.8144598 79.5,30.6563875 L79.5,40.7192022 C79.5,41.5601808 80.0388663,42.24825 80.6995447,42.24825 L95.2097916,42.24825 C95.8704249,42.24825 96.4093363,41.5601808 96.4093363,40.7192022 L96.4093363,30.6563875 C96.4093363,29.814505 95.8704701,29.1327637 95.2097916,29.1327637 L95.2097916,29.1327637 Z M89.3140829,35.6775798 L89.3140829,38.7181832 C89.3140829,39.0663536 89.0225925,39.3610079 88.6741509,39.3610079 L87.2352758,39.3610079 C86.8867891,39.3610079 86.5952987,39.0663536 86.5952987,38.7181832 L86.5952987,35.6775798 C86.2573433,35.3449129 86.0605907,34.8849194 86.0605907,34.3760655 C86.0605907,33.4117832 86.8059727,32.5831893 87.753712,32.5449055 C87.8541449,32.5408375 88.055327,32.5408375 88.1557599,32.5449055 C89.1034992,32.5831893 89.8488812,33.4117832 89.8488812,34.3760655 C89.8487908,34.8849194 89.6520382,35.3449129 89.3140829,35.6775798 L89.3140829,35.6775798 Z M91.9557119,29.1327637 L88.1557147,29.1327637 L87.7536668,29.1327637 L83.9536697,29.1327637 L83.9536697,27.1264563 C83.9536697,24.9159836 85.7500714,23.0882588 87.9546682,23.0882588 C90.1592649,23.0882588 91.9557571,24.9159836 91.9557571,27.1264563 L91.9557571,29.1327637 L91.9557119,29.1327637 Z" id="Shape-Copy"></path>
                </g>
            </g>
        </g>
    </g>
</svg>