<?xml version="1.0" encoding="UTF-8" standalone="no"?>
<svg width="82px" height="20px" viewBox="0 0 82 20" version="1.1" xmlns="http://www.w3.org/2000/svg" xmlns:xlink="http://www.w3.org/1999/xlink" xmlns:sketch="http://www.bohemiancoding.com/sketch/ns">
    <!-- Generator: Sketch 3.3 (11970) - http://www.bohemiancoding.com/sketch -->
    <title>Fill 1 + Fill 2</title>
    <desc>Created with Sketch.</desc>
    <defs></defs>
    <g id="Page-1" stroke="none" stroke-width="1" fill="none" fill-rule="evenodd" sketch:type="MSPage">
        <g id="Not-SIgned-In-SPEC-Copy" sketch:type="MSArtboardGroup" transform="translate(-97.000000, -354.000000)" fill="#FFFFFF">
            <g id="Fill-1-+-Fill-2" sketch:type="MSLayerGroup" transform="translate(97.000000, 354.500000)">
                <path d="M81.1881148,17.5066382 C81.1881148,18.1352952 80.6988421,18.6255394 80.0633236,18.6255394 C79.4331648,18.6255394 78.9316412,18.1352952 78.9316412,17.5066382 C78.9316412,16.8926731 79.4331648,16.3977894 80.0633236,16.3977894 C80.6988421,16.3977894 81.1881148,16.8926731 81.1881148,17.5066382 L81.1881148,17.5066382 Z M79.2141789,17.5066382 C79.2141789,17.9953359 79.5755822,18.3889231 80.0709804,18.3889231 C80.5518306,18.3889231 80.9055771,17.9953359 80.9055771,17.5112777 C80.9055771,17.0179405 80.5518306,16.6220336 80.0633236,16.6220336 C79.5755822,16.6220336 79.2141789,17.0179405 79.2141789,17.5066382 L79.2141789,17.5066382 Z M79.8887474,18.0888998 L79.6360714,18.0888998 L79.6360714,16.9792777 C79.7356104,16.9568533 79.8780278,16.9444812 80.0571981,16.9444812 C80.2639331,16.9444812 80.358878,16.9792777 80.4377435,17.0256731 C80.499764,17.0728417 80.5464708,17.1640859 80.5464708,17.2684754 C80.5464708,17.3891033 80.4522916,17.4896266 80.3190624,17.5275161 L80.3190624,17.5391149 C80.4254926,17.5808708 80.4859817,17.6605161 80.5189062,17.811301 C80.5518306,17.977551 80.5702071,18.0486905 80.5977717,18.0888998 L80.3244222,18.0888998 C80.2914977,18.0486905 80.2715899,17.944301 80.2378998,17.8182603 C80.2172263,17.6960859 80.1513774,17.6411847 80.00896,17.6411847 L79.8887474,17.6411847 L79.8887474,18.0888998 L79.8887474,18.0888998 Z M79.8956386,17.4571498 L80.0166168,17.4571498 C80.1582685,17.4571498 80.2715899,17.412301 80.2715899,17.2970859 C80.2715899,17.1942429 80.1980841,17.1292894 80.0372903,17.1292894 C79.9691443,17.1292894 79.9232032,17.1339289 79.8956386,17.1408882 L79.8956386,17.4571498 L79.8956386,17.4571498 Z" id="Fill-1" sketch:type="MSShapeGroup"></path>
                <path d="M11.3881396,12.682661 L2.54182812,12.682661 C2.54182812,13.8299205 2.98506231,15.0776811 3.75211009,15.8538594 C4.31935799,16.426716 5.08487474,16.7490928 6.05019135,16.7490928 C7.03923898,16.7490928 7.85374879,16.4746473 8.37430018,15.9242102 C8.71954823,15.5778677 8.9423136,15.2276598 9.11378935,14.5535289 L11.1669053,14.5535289 C10.994664,15.8005164 10.2521127,16.975607 9.24009961,17.6698381 C8.34980364,18.2759375 7.23750782,18.6215069 6.05019135,18.6215069 C4.29486146,18.6215069 2.8610486,17.8716136 1.89726302,16.7274464 C0.857691288,15.5028784 0.340967487,13.8299205 0.340967487,12.0332689 C0.340967487,10.5118358 0.61272593,9.16125477 1.30398755,7.98771038 C2.193518,6.46705042 3.85086175,5.34221044 6.02416378,5.34221044 C7.63251445,5.34221044 8.91705155,5.96609076 9.83184405,6.96569082 C10.8446227,8.08821154 11.4363671,9.71246501 11.4149327,11.4070693 L11.3881396,12.682661 L11.3881396,12.682661 Z M8.49907941,8.28534845 C7.97852802,7.58725188 7.13722512,7.14040823 6.02416378,7.14040823 C3.75211009,7.14040823 2.63751771,9.0112761 2.58852464,10.8620437 L9.2622996,10.8620437 C9.2622996,9.91114809 8.98977564,8.96257169 8.49907941,8.28534845 L8.49907941,8.28534845 Z M32.5822361,18.2968108 L32.4084638,16.3780116 C31.7654297,17.8244553 30.1586101,18.6014066 28.7003007,18.6014066 C25.8587026,18.6014066 24.4225932,16.8743328 24.4225932,13.9559335 L24.4225932,5.66613343 L26.5262332,5.66613343 L26.5262332,13.6567493 C26.5262332,15.553129 27.2174948,16.6779689 29.1948245,16.6779689 C30.0353619,16.6779689 30.7281546,16.300703 31.2716714,15.7317118 C32.0632158,14.9060561 32.3104777,13.5307363 32.3104777,12.2334981 L32.3104777,5.66613343 L34.4102901,5.66613343 L34.4102901,18.2968108 L32.5822361,18.2968108 L32.5822361,18.2968108 Z M45.8922757,17.2515987 C45.0035108,18.1282781 43.8161943,18.6215069 42.2859263,18.6215069 C40.0368381,18.6215069 38.5999632,17.5755217 37.7104328,16.2512255 C37.0429022,15.256264 36.6731576,13.8817172 36.6731576,11.9868837 C36.6731576,10.0850924 37.0429022,8.71441112 37.7104328,7.71017254 C38.5999632,6.38896874 40.0092795,5.34221044 42.2583677,5.34221044 C43.7434702,5.34221044 44.9545177,5.84239701 45.8203171,6.69201841 C46.6623855,7.51844724 47.2036059,8.56443245 47.3023575,9.93743301 L45.175752,9.93743301 C45.0770004,9.0607536 44.7554833,8.43687328 44.2877526,7.96219854 C43.7924633,7.48906997 43.0759396,7.18911264 42.2583677,7.18911264 C41.2961132,7.18911264 40.6270515,7.5370013 40.0843002,8.01322221 C39.0960181,8.86052435 38.8227286,10.4360734 38.8227286,11.9868837 C38.8227286,13.5307363 39.0960181,15.1016468 40.0843002,15.9512682 C40.6270515,16.426716 41.2961132,16.7746047 42.2583677,16.7746047 C43.1249327,16.7746047 43.8912149,16.4514548 44.3865043,15.9242102 C44.830504,15.4526278 45.1290555,14.878225 45.2255106,14.0564347 L47.3513506,14.0564347 C47.25413,15.4023772 46.7351096,16.426716 45.8922757,17.2515987 L45.8922757,17.2515987 Z M49.5369009,1.64763294 L51.8219684,1.64763294 L51.8219684,3.85092774 L49.5369009,3.85092774 L49.5369009,1.64763294 Z M49.6035009,5.66613343 L51.7546029,5.66613343 L51.7546029,18.2968108 L49.6035009,18.2968108 L49.6035009,5.66613343 Z M64.0771259,18.4707551 C62.9671266,18.4707551 62.2712719,17.623453 62.2712719,16.5504098 L62.2238099,16.5504098 C61.5065207,17.8244553 59.9494596,18.6215069 58.1948953,18.6215069 C55.3272695,18.6215069 53.8934567,16.6779689 53.8934567,14.725927 C53.8934567,13.105539 54.9307319,10.9803259 58.344171,10.7870544 L62.1503203,10.5613133 L62.1503203,9.63670259 C62.1503203,9.0112761 62.0745341,8.23973638 61.5065207,7.71017254 C61.086252,7.31280639 60.46848,7.0654189 59.4549358,7.0654189 C58.318909,7.0654189 57.6016198,7.38856881 57.1805856,7.81144679 C56.7840479,8.21190529 56.5628136,8.71441112 56.5628136,9.33674526 L54.5104632,9.33674526 C54.5341942,8.18716654 54.957525,7.36614932 55.599028,6.69201841 C56.4387999,5.78905409 57.9231368,5.34221044 59.4549358,5.34221044 C61.8754998,5.34221044 63.2610851,6.38896874 63.8512985,7.76428855 C64.102388,8.33791829 64.2248706,8.98653735 64.2248706,9.71246501 L64.2248706,15.8244821 C64.2248706,16.5009323 64.4973946,16.6779689 64.9168978,16.6779689 C65.1404287,16.6779689 65.4619457,16.6060719 65.4619457,16.6060719 L65.4619457,18.1715709 C65.0171805,18.4004043 64.5976773,18.4707551 64.0771259,18.4707551 L64.0771259,18.4707551 Z M62.1503203,12.2079863 L58.7874052,12.4051232 C57.5265991,12.4832049 56.0437932,13.0823464 56.0437932,14.6787688 C56.0437932,15.8005164 56.7365859,16.8519133 58.5156468,16.8519133 C59.4809634,16.8519133 60.4187214,16.5287634 61.086252,15.8244821 C61.8280377,15.0537155 62.1503203,14.0046379 62.1503203,12.9547873 L62.1503203,12.2079863 L62.1503203,12.2079863 Z M75.4373944,18.2968108 L75.4373944,10.2853217 C75.4373944,8.38739578 74.6688155,7.26719432 72.6922513,7.26719432 C71.4812038,7.26719432 70.5174183,8.06501897 69.9746669,9.21227844 C69.5543982,10.1345699 69.5299017,11.4557737 69.5299017,12.4321812 L69.5299017,18.2968108 L67.4293237,18.2968108 L67.4293237,5.66613343 L69.2550811,5.66613343 L69.4288534,7.56560548 C70.0734185,6.11220399 71.8027209,5.34221044 73.2128027,5.34221044 C76.0551664,5.34221044 77.5372068,7.0654189 77.5372068,9.98768359 L77.5372068,18.2968108 L75.4373944,18.2968108 L75.4373944,18.2968108 Z M13.7773173,18.2968108 L15.8794263,18.2968108 L15.8794263,0.274632389 L13.7773173,0.274632389 L13.7773173,18.2968108 Z M19.5064446,18.2968108 L21.6077881,18.2968108 L21.6077881,0.274632389 L19.5064446,0.274632389 L19.5064446,18.2968108 Z" id="Fill-2" sketch:type="MSShapeGroup"></path>
            </g>
        </g>
    </g>
</svg>