<?xml version="1.0" encoding="UTF-8" standalone="no"?>
<svg width="26px" height="26px" viewBox="0 0 26 26" version="1.1" xmlns="http://www.w3.org/2000/svg" xmlns:xlink="http://www.w3.org/1999/xlink" xmlns:sketch="http://www.bohemiancoding.com/sketch/ns">
    <!-- Generator: Sketch 3.3 (11970) - http://www.bohemiancoding.com/sketch -->
    <title>Fill 2 + Fill 4</title>
    <desc>Created with Sketch.</desc>
    <defs></defs>
    <g id="Page-1" stroke="none" stroke-width="1" fill="none" fill-rule="evenodd" sketch:type="MSPage">
        <g id="Not-SIgned-In-SPEC-Copy" sketch:type="MSArtboardGroup" transform="translate(-1581.000000, -1159.000000)" fill="#FFFFFF">
            <g id="Fill-2-+-Fill-4" sketch:type="MSLayerGroup" transform="translate(1581.000000, 1159.000000)">
                <path d="M13.2254571,6.4584 C8.59151429,6.93308571 8.38425714,13.7086857 11.0332857,15.977 C11.3527143,16.2496286 11.3605143,16.2084 11.3527143,16.6522571 C11.3456571,17.0935143 11.4411143,17.1403143 11.0162,17.2588 C8.62977143,17.9236571 6.3414,18.6880571 4.8074,19.89 C4.11245714,20.4352571 3.83797143,20.7766 3.83797143,21.7152 L3.83797143,21.7226286 C6.22514286,24.0254857 9.47142857,25.4417429 13.0505143,25.4421143 C16.7146571,25.4417429 20.0307714,23.9567714 22.4324286,21.5558571 C22.4881429,21.4997714 22.5434857,21.4436857 22.5984571,21.3868571 C22.5356857,20.6874571 22.2496857,20.3665429 21.6427714,19.89 C20.1084,18.6880571 17.8200286,17.9236571 15.4336,17.2588 C15.0086857,17.1395714 15.1045143,17.0942571 15.0974571,16.6522571 C15.0892857,16.2084 15.0974571,16.2496286 15.4157714,15.977 C18.0655429,13.7086857 17.8586571,6.93308571 13.2254571,6.4584" id="Fill-2" sketch:type="MSShapeGroup"></path>
                <path d="M25.6285714,13.0620286 L25.4428571,13.0620286 C25.4428571,16.4814 24.0574286,19.5754 21.8166,21.8166 C19.5754,24.0574286 16.4814,25.4428571 13.0620286,25.4428571 C9.64228571,25.4428571 6.54828571,24.0574286 4.30708571,21.8166 C2.06625714,19.5754 0.6812,16.4814 0.680828571,13.0620286 C0.6812,9.64228571 2.06625714,6.54828571 4.30708571,4.30708571 C6.54828571,2.06625714 9.64228571,0.6812 13.0620286,0.680828571 C16.4814,0.6812 19.5754,2.06625714 21.8166,4.30708571 C24.0574286,6.54828571 25.4428571,9.64228571 25.4428571,13.0620286 L25.8142857,13.0620286 C25.8142857,6.019 20.1050571,0.309771429 13.0620286,0.3094 C6.019,0.309771429 0.309771429,6.019 0.3094,13.0620286 C0.309771429,20.1050571 6.019,25.8142857 13.0620286,25.8142857 C20.1050571,25.8142857 25.8142857,20.1050571 25.8142857,13.0620286 L25.6285714,13.0620286" id="Fill-4" sketch:type="MSShapeGroup"></path>
            </g>
        </g>
    </g>
</svg>