<?xml version="1.0" encoding="UTF-8" standalone="no"?>
<svg width="90px" height="19px" viewBox="0 0 90 19" version="1.1" xmlns="http://www.w3.org/2000/svg" xmlns:xlink="http://www.w3.org/1999/xlink">
    <!-- Generator: Sketch 49.2 (51160) - http://www.bohemiancoding.com/sketch -->
    <title>Group 3</title>
    <desc>Created with Sketch.</desc>
    <defs></defs>
    <g id="Page-1" stroke="none" stroke-width="1" fill="none" fill-rule="evenodd">
        <g id="Mapping" transform="translate(-1943.000000, -448.000000)" fill="#FFFFFF">
            <g id="Group-3" transform="translate(1943.000000, 448.000000)">
                <g id="Group-4">
                    <path d="M15.8824976,12.0950114 C15.1682049,13.8352386 13.8067902,15.1980568 12.0502537,15.9312841 C11.1520098,16.3061023 10.2059122,16.4935114 9.25893659,16.4935114 C8.35366829,16.4935114 7.4466439,16.3220795 6.58176585,15.9779205 C2.92820488,14.5265795 1.15761951,10.4225795 2.63318049,6.82942045 C3.93576585,3.65728409 7.34918049,1.87689773 10.7511805,2.59544318 C11.1875707,2.68828409 11.5743512,2.80271591 11.9347902,2.94607955 C12.2956683,3.08944318 12.6547902,3.27123864 13.0332293,3.50269318 L13.1820585,3.593375 L10.0096683,11.3160114 L7.40757073,10.2822386 L9.50566829,5.17642045 C7.64552195,5.06846591 5.91005854,6.14282955 5.20761951,7.85282955 C4.30498537,10.0494886 5.38805854,12.5583523 7.62137561,13.4461705 C9.85644878,14.333125 12.4058634,13.2686932 13.3084976,11.0716023 C13.7242537,10.0607159 13.730839,8.93928409 13.3278146,7.91501136 L13.297961,7.83944318 L14.5680585,4.747625 L14.7910829,5.01621591 C16.4409366,7.00603409 16.8593268,9.71871591 15.8824976,12.0950114 M12.7254732,1.02146591 C7.98576585,-0.862125 2.59147317,1.39023864 0.67644878,6.05171591 C-1.23857561,10.713625 1.05137561,16.019375 5.79108293,17.9029659 C10.5303512,19.7865568 15.9246439,17.5341932 17.8396683,12.8722841 C19.7542537,8.21080682 17.4647415,2.904625 12.7254732,1.02146591" id="Fill-1"></path>
                    <path d="M89.138722,15.4964432 C88.9108683,15.4964432 88.7453561,15.3206932 88.7453561,15.1000341 C88.7453561,14.8819659 88.9108683,14.7031932 89.1356488,14.7031932 C89.3604293,14.7031932 89.5237463,14.8819659 89.5237463,15.1030568 C89.5237463,15.3206932 89.3604293,15.4964432 89.138722,15.4964432 M89.1356488,14.6034432 C88.8463317,14.6034432 88.6158439,14.8245341 88.6158439,15.1000341 C88.6158439,15.3815795 88.8463317,15.6026705 89.1356488,15.6026705 C89.428039,15.6026705 89.6528195,15.3815795 89.6528195,15.1000341 C89.6528195,14.8245341 89.428039,14.6034432 89.1356488,14.6034432" id="Fill-4"></path>
                    <path d="M89.1142683,15.081057 L89.0589512,15.081057 L89.0589512,14.9371258 C89.0712439,14.9345089 89.0927561,14.9310196 89.1234878,14.9310196 C89.1972439,14.9310196 89.2314878,14.9619867 89.2314878,15.0077829 C89.2314878,15.0596854 89.1788049,15.081057 89.1142683,15.081057 M89.252561,15.117694 L89.252561,15.1115878 C89.3144634,15.0932693 89.3574878,15.0505261 89.3574878,14.9955706 C89.3574878,14.9462851 89.3359756,14.906595 89.307878,14.8852234 C89.271,14.8638518 89.2284146,14.8485864 89.1327073,14.8485864 C89.0497317,14.8485864 88.9851951,14.8546925 88.9390976,14.8638518 L88.9390976,15.36543 L89.055878,15.36543 L89.055878,15.1634902 L89.1111951,15.1634902 C89.1761707,15.1634902 89.2064634,15.1879149 89.2156829,15.2433066 C89.2314878,15.3013152 89.2402683,15.3471115 89.2556341,15.36543 L89.3820732,15.36543 C89.3697805,15.3471115 89.360561,15.3165806 89.3447561,15.2402535 C89.3298293,15.1726495 89.3021707,15.1360125 89.252561,15.117694" id="Fill-6"></path>
                    <polygon id="Fill-8" points="35.6641463 15.5385455 37.3811707 15.5385455 37.3811707 1.19354545 35.6641463 1.19354545"></polygon>
                    <polygon id="Fill-10" points="40.3459024 15.5385455 42.0629268 15.5385455 42.0629268 1.19354545 40.3459024 1.19354545"></polygon>
                    <path d="M26.5211561,9.61754091 C26.5619854,8.14676818 27.4703268,6.65742727 29.3291561,6.65742727 C30.2374976,6.65742727 30.9250098,7.01454091 31.3491073,7.57115455 C31.7534488,8.10747273 31.9755951,8.86272273 31.9755951,9.61754091 L26.5211561,9.61754091 Z M29.3291561,5.22638182 C27.5511073,5.22638182 26.1980341,6.12067727 25.4705707,7.33235909 C24.9046683,8.26681364 24.682961,9.33945 24.682961,10.5519955 C24.682961,11.9826091 25.1070585,13.3134727 25.9556927,14.2867909 C26.7433024,15.2000864 27.9154976,15.7972909 29.3489122,15.7972909 C30.318278,15.7972909 31.2279366,15.5192 31.9554,15.0416091 C32.7834,14.4858591 33.3896927,13.5509727 33.5310585,12.5577909 L31.8539854,12.5577909 C31.7126195,13.0945409 31.5304244,13.3730636 31.2485707,13.6502909 C30.8240341,14.0881545 30.1571561,14.3066545 29.3489122,14.3066545 C28.5617415,14.3066545 27.9352537,14.0484273 27.4703268,13.5911318 C26.843839,12.9757909 26.4807659,11.9826091 26.4807659,11.0675864 L33.7123756,11.0675864 L33.7330098,10.0541091 C33.7532049,8.70338182 33.2680829,7.41267727 32.4396439,6.51795 C31.6928634,5.72340455 30.641839,5.22638182 29.3291561,5.22638182 Z" id="Fill-11"></path>
                    <polygon id="Fill-12" points="64.8856098 4.03663636 66.7536585 4.03663636 66.7536585 2.28863636 64.8856098 2.28863636"></polygon>
                    <path d="M84.2339854,5.22620909 C83.0819854,5.22620909 81.6683268,5.84284545 81.1428146,6.99536818 L81.0014488,5.48486818 L79.5070098,5.48486818 L79.5070098,15.5384591 L81.2244732,15.5384591 L81.2244732,10.8696409 C81.2244732,10.0936636 81.2446683,9.04132273 81.5879854,8.30636818 C82.0314,7.39220909 82.8194488,6.75657273 83.8094488,6.75657273 C85.4246195,6.75657273 86.0515463,7.65043636 86.0515463,9.16050455 L86.0515463,15.5384591 L87.7685707,15.5384591 L87.7685707,8.92257273 C87.7685707,6.59809545 86.5573024,5.22620909 84.2339854,5.22620909" id="Fill-13"></path>
                    <path d="M75.1932439,11.2862159 C75.1932439,12.1209205 74.9298293,12.955625 74.3244146,13.5713977 C73.7791463,14.1284432 73.0117317,14.3858068 72.2236829,14.3858068 C70.7691951,14.3858068 70.2046098,13.5511023 70.2046098,12.6581023 C70.2046098,11.3863977 71.4163171,10.9092386 72.4458293,10.8496477 L75.1932439,10.6907386 L75.1932439,11.2862159 Z M76.8900732,13.5713977 L76.8900732,8.70351136 C76.8900732,8.12746591 76.7890976,7.61144318 76.5862683,7.15371591 C76.1020244,6.06078409 74.9706585,5.22607955 72.9910976,5.22607955 C71.739439,5.22607955 70.5272927,5.58448864 69.8402195,6.29957955 C69.3151463,6.83589773 68.9713902,7.49182955 68.9507561,8.40598864 L70.6278293,8.40598864 C70.6278293,7.90939773 70.8095854,7.51126136 71.1327073,7.19344318 C71.4764634,6.85619318 72.062561,6.59796591 72.9910976,6.59796591 C73.8190976,6.59796591 74.3244146,6.79617045 74.6681707,7.11485227 C75.1322195,7.53155682 75.1932439,8.14689773 75.1932439,8.64348864 L75.1932439,9.378875 L72.0823171,9.55894318 C69.2945122,9.71698864 68.445878,11.4049659 68.445878,12.6973977 C68.445878,14.247625 69.6180732,15.7969886 71.9607073,15.7969886 C73.395878,15.7969886 74.6681707,15.1617841 75.2538293,14.1474432 L75.2937805,14.1474432 C75.2937805,15.0020114 75.860561,15.677375 76.7693415,15.677375 C77.193439,15.677375 77.5363171,15.6186477 77.8998293,15.4394432 L77.8998293,14.1876023 C77.8998293,14.1876023 77.6372927,14.247625 77.4555366,14.247625 C77.1117805,14.247625 76.8900732,14.1081477 76.8900732,13.5713977 Z" id="Fill-14"></path>
                    <path d="M50.8085561,10.7112068 C50.8085561,11.7428205 50.6061659,12.8366159 49.959922,13.4925477 C49.5160683,13.9489795 48.9510439,14.2473659 48.2635317,14.2473659 C46.6470439,14.2473659 46.0811415,13.3526386 46.0811415,11.8434341 L46.0811415,5.48491136 L44.3645561,5.48491136 L44.3645561,12.0813659 C44.3645561,14.4058432 45.5363122,15.7777295 47.8587512,15.7777295 C49.0507024,15.7777295 50.3642634,15.161525 50.8893366,14.0085705 L51.0307024,15.5385023 L52.5255805,15.5385023 L52.5255805,5.48491136 L50.8085561,5.48491136 L50.8085561,10.7112068 Z" id="Fill-15"></path>
                    <polygon id="Fill-16" points="64.9404878 15.5385455 66.6987805 15.5385455 66.6987805 5.48495455 64.9404878 5.48495455"></polygon>
                    <path d="M60.6767268,13.6502477 C60.2728244,14.0678159 59.6463366,14.3256114 58.9390683,14.3256114 C58.1518976,14.3256114 57.6061902,14.0483841 57.1618976,13.6705432 C56.3540927,12.9951795 56.1310683,11.7429068 56.1310683,10.512225 C56.1310683,9.27938409 56.3540927,8.027975 57.1618976,7.35261136 C57.6061902,6.97477045 58.1518976,6.69667955 58.9390683,6.69667955 C59.6063854,6.69667955 60.1920439,6.935475 60.5959463,7.31245227 C60.9800927,7.68986136 61.2426293,8.18645227 61.3234098,8.882975 L63.0610683,8.882975 C62.9794098,7.790475 62.5359951,6.95577045 61.8484829,6.29983864 C61.1416537,5.62404318 60.1520927,5.22633864 58.9390683,5.22633864 C57.1008732,5.22633864 55.9497512,6.06104318 55.2222878,7.11511136 C54.6774585,7.909225 54.3749707,9.001725 54.3749707,10.512225 C54.3749707,12.0222932 54.6774585,13.115225 55.2222878,13.9093386 C55.9497512,14.9625432 57.1215073,15.7972477 58.9597024,15.7972477 C60.2118,15.7972477 61.1816049,15.3991114 61.9086293,14.7034523 C62.5961415,14.0483841 63.020239,13.233975 63.1005805,12.1613386 L61.362922,12.1613386 C61.2830195,12.8164068 61.0411171,13.2732705 60.6767268,13.6502477" id="Fill-17"></path>
                </g>
            </g>
        </g>
    </g>
</svg>