<?xml version="1.0" encoding="UTF-8" standalone="no"?>
<svg width="90px" height="19px" viewBox="0 0 90 19" version="1.1" xmlns="http://www.w3.org/2000/svg" xmlns:xlink="http://www.w3.org/1999/xlink">
    <!-- Generator: Sketch 49.1 (51147) - http://www.bohemiancoding.com/sketch -->
    <title>Group</title>
    <desc>Created with Sketch.</desc>
    <defs></defs>
    <g id="Page-1" stroke="none" stroke-width="1" fill="none" fill-rule="evenodd">
        <g id="mv" transform="translate(-244.000000, -194.000000)">
            <g id="Group" transform="translate(244.000000, 194.000000)">
                <path d="M15.8825117,11.7389108 C15.168219,13.4791381 13.8068044,14.8419562 12.0502678,15.5751835 C11.1520239,15.9500017 10.2059264,16.1374108 9.25895075,16.1374108 C8.35368246,16.1374108 7.44665807,15.965979 6.58178002,15.6218199 C2.92821904,14.170479 1.15763368,10.066479 2.63319465,6.47331988 C3.93578002,3.30118352 7.34919465,1.52079715 10.7511947,2.23934261 C11.1875849,2.33218352 11.5743654,2.44661533 11.9348044,2.58997897 C12.2956825,2.73334261 12.6548044,2.91513806 13.0332434,3.14659261 L13.1820727,3.23727443 L10.0096825,10.9599108 L7.4075849,9.92613806 L9.50568246,4.82031988 C7.64553612,4.71236533 5.9100727,5.78672897 5.20763368,7.49672897 C4.30499953,9.69338806 5.3880727,12.2022517 7.62138977,13.0900699 C9.85646295,13.9770244 12.4058776,12.9125926 13.3085117,10.7155017 C13.7242678,9.70461533 13.7308532,8.58318352 13.3278288,7.55891079 L13.2979751,7.48334261 L14.5680727,4.39152443 L14.7910971,4.66011533 C16.4409508,6.64993352 16.859341,9.36261533 15.8825117,11.7389108 M12.7254873,0.665365334 C7.98578002,-1.21822557 2.59148734,1.03413806 0.676462945,5.69561533 C-1.23856144,10.3575244 1.05138977,15.6632744 5.79109709,17.5468653 C10.5303654,19.4304562 15.9246581,17.1780926 17.8396825,12.5161835 C19.7542678,7.85470624 17.4647556,2.54852443 12.7254873,0.665365334" id="Fill-1" fill="#FFFFFF"></path>
                <path d="M89.1387361,15.1403426 C88.9108825,15.1403426 88.7453703,14.9645926 88.7453703,14.7439335 C88.7453703,14.5258653 88.9108825,14.3470926 89.1356629,14.3470926 C89.3604434,14.3470926 89.5237605,14.5258653 89.5237605,14.7469562 C89.5237605,14.9645926 89.3604434,15.1403426 89.1387361,15.1403426 M89.1356629,14.2473426 C88.8463459,14.2473426 88.6158581,14.4684335 88.6158581,14.7439335 C88.6158581,15.025479 88.8463459,15.2465699 89.1356629,15.2465699 C89.4280532,15.2465699 89.6528337,15.025479 89.6528337,14.7439335 C89.6528337,14.4684335 89.4280532,14.2473426 89.1356629,14.2473426" id="Fill-4" fill="#FFFFFF"></path>
                <polygon id="Clip-9" points="1.41649484e-05 18.2120812 89.6531849 18.2120812 89.6531849 0.000149425189 1.41649484e-05 0.000149425189"></polygon>
                <polygon id="Fill-8" fill="#FFFFFF" points="35.6641605 15.1824449 37.3811849 15.1824449 37.3811849 0.83744488 35.6641605 0.83744488"></polygon>
                <polygon id="Fill-10" fill="#FFFFFF" points="40.3459166 15.1824449 42.062941 15.1824449 42.062941 0.83744488 40.3459166 0.83744488"></polygon>
                <path d="M26.5211703,9.26144033 C26.5619995,7.79066761 27.470341,6.3013267 29.3291703,6.3013267 C30.2375117,6.3013267 30.9250239,6.65844033 31.3491215,7.21505397 C31.7534629,7.75137215 31.9756093,8.50662215 31.9756093,9.26144033 L26.5211703,9.26144033 Z M29.3291703,4.87028124 C27.5511215,4.87028124 26.1980483,5.7645767 25.4705849,6.97625852 C24.9046825,7.91071306 24.6829751,8.98334943 24.6829751,10.1958949 C24.6829751,11.6265085 25.1070727,12.9573722 25.9557068,13.9306903 C26.7433166,14.8439858 27.9155117,15.4411903 29.3489264,15.4411903 C30.3182922,15.4411903 31.2279508,15.1630994 31.9554142,14.6855085 C32.7834142,14.1297585 33.3897068,13.1948722 33.5310727,12.2016903 L31.8539995,12.2016903 C31.7126337,12.7384403 31.5304386,13.0169631 31.2485849,13.2941903 C30.8240483,13.732054 30.1571703,13.950554 29.3489264,13.950554 C28.5617556,13.950554 27.9352678,13.6923267 27.470341,13.2350312 C26.8438532,12.6196903 26.48078,11.6265085 26.48078,10.7114858 L33.7123898,10.7114858 L33.7330239,9.69800852 C33.753219,8.34728124 33.2680971,7.0565767 32.4396581,6.16184943 C31.6928776,5.36730397 30.6418532,4.87028124 29.3291703,4.87028124 Z" id="Fill-11" fill="#FFFFFF"></path>
                <polygon id="Fill-12" fill="#FFFFFF" points="64.8856239 3.68053579 66.7536727 3.68053579 66.7536727 1.93253579 64.8856239 1.93253579"></polygon>
                <path d="M84.2339995,4.87010852 C83.0819995,4.87010852 81.668341,5.48674488 81.1428288,6.63926761 L81.0014629,5.12876761 L79.5070239,5.12876761 L79.5070239,15.1823585 L81.2244873,15.1823585 L81.2244873,10.5135403 C81.2244873,9.73756306 81.2446825,8.68522215 81.5879995,7.95026761 C82.0314142,7.03610852 82.8194629,6.40047215 83.8094629,6.40047215 C85.4246337,6.40047215 86.0515605,7.29433579 86.0515605,8.80440397 L86.0515605,15.1823585 L87.7685849,15.1823585 L87.7685849,8.56647215 C87.7685849,6.24199488 86.5573166,4.87010852 84.2339995,4.87010852" id="Fill-13" fill="#FFFFFF"></path>
                <path d="M75.1932581,10.9301153 C75.1932581,11.7648199 74.9298434,12.5995244 74.3244288,13.2152972 C73.7791605,13.7723426 73.0117459,14.0297062 72.2236971,14.0297062 C70.7692093,14.0297062 70.2046239,13.1950017 70.2046239,12.3020017 C70.2046239,11.0302972 71.4163312,10.5531381 72.4458434,10.4935472 L75.1932581,10.3346381 L75.1932581,10.9301153 Z M76.8900873,13.2152972 L76.8900873,8.34741079 C76.8900873,7.77136533 76.7891117,7.25534261 76.5862825,6.79761533 C76.1020386,5.70468352 74.9706727,4.86997897 72.9911117,4.86997897 C71.7394532,4.86997897 70.5273068,5.22838806 69.8402337,5.94347897 C69.3151605,6.47979715 68.9714044,7.13572897 68.9507703,8.04988806 L70.6278434,8.04988806 C70.6278434,7.55329715 70.8095995,7.15516079 71.1327215,6.83734261 C71.4764776,6.50009261 72.0625751,6.24186533 72.9911117,6.24186533 C73.8191117,6.24186533 74.3244288,6.44006988 74.6681849,6.7587517 C75.1322337,7.17545624 75.1932581,7.79079715 75.1932581,8.28738806 L75.1932581,9.02277443 L72.0823312,9.20284261 C69.2945264,9.36088806 68.4458922,11.0488653 68.4458922,12.3412972 C68.4458922,13.8915244 69.6180873,15.4408881 71.9607215,15.4408881 C73.3958922,15.4408881 74.6681849,14.8056835 75.2538434,13.7913426 L75.2937947,13.7913426 C75.2937947,14.6459108 75.8605751,15.3212744 76.7693556,15.3212744 C77.1934532,15.3212744 77.5363312,15.2625472 77.8998434,15.0833426 L77.8998434,13.8315017 C77.8998434,13.8315017 77.6373068,13.8915244 77.4555508,13.8915244 C77.1117947,13.8915244 76.8900873,13.7520472 76.8900873,13.2152972 Z" id="Fill-14" fill="#FFFFFF"></path>
                <path d="M50.8085703,10.3551062 C50.8085703,11.3867199 50.60618,12.4805153 49.9599361,13.1364472 C49.5160825,13.592879 48.9510581,13.8912653 48.2635459,13.8912653 C46.6470581,13.8912653 46.0811556,12.9965381 46.0811556,11.4873335 L46.0811556,5.12881079 L44.3645703,5.12881079 L44.3645703,11.7252653 C44.3645703,14.0497426 45.5363264,15.421629 47.8587654,15.421629 C49.0507166,15.421629 50.3642776,14.8054244 50.8893508,13.6524699 L51.0307166,15.1824017 L52.5255947,15.1824017 L52.5255947,5.12881079 L50.8085703,5.12881079 L50.8085703,10.3551062 Z" id="Fill-15" fill="#FFFFFF"></path>
                <polygon id="Fill-16" fill="#FFFFFF" points="64.940502 15.1824449 66.6987947 15.1824449 66.6987947 5.12885397 64.940502 5.12885397"></polygon>
                <path d="M60.676741,13.2941472 C60.2728386,13.7117153 59.6463508,13.9695108 58.9390825,13.9695108 C58.1519117,13.9695108 57.6062044,13.6922835 57.1619117,13.3144426 C56.3541068,12.639079 56.1310825,11.3868062 56.1310825,10.1561244 C56.1310825,8.92328352 56.3541068,7.67187443 57.1619117,6.99651079 C57.6062044,6.61866988 58.1519117,6.34057897 58.9390825,6.34057897 C59.6063995,6.34057897 60.1920581,6.57937443 60.5959605,6.9563517 C60.9801068,7.33376079 61.2426434,7.8303517 61.3234239,8.52687443 L63.0610825,8.52687443 C62.9794239,7.43437443 62.5360093,6.59966988 61.8484971,5.94373806 C61.1416678,5.26794261 60.1521068,4.87023806 58.9390825,4.87023806 C57.1008873,4.87023806 55.9497654,5.70494261 55.222302,6.75901079 C54.6774727,7.55312443 54.3749849,8.64562443 54.3749849,10.1561244 C54.3749849,11.6661926 54.6774727,12.7591244 55.222302,13.5532381 C55.9497654,14.6064426 57.1215215,15.4411472 58.9597166,15.4411472 C60.2118142,15.4411472 61.181619,15.0430108 61.9086434,14.3473517 C62.5961556,13.6922835 63.0202532,12.8778744 63.1005947,11.8052381 L61.3629361,11.8052381 C61.2830337,12.4603062 61.0411312,12.9171699 60.676741,13.2941472" id="Fill-17" fill="#FFFFFF"></path>
            </g>
        </g>
    </g>
</svg>